<svg width="24" height="24" viewBox="0 0 24 24" fill="none" xmlns="http://www.w3.org/2000/svg">
<path d="M6.67583 21.1914C6.20333 21.1914 5.8034 21.0277 5.47604 20.7004C5.14867 20.373 4.98499 19.9731 4.98499 19.5006V10.7229C4.98499 10.2504 5.14867 9.85049 5.47604 9.52312C5.8034 9.19575 6.20333 9.03207 6.67583 9.03207H9.06795V10.4351H6.67583C6.60381 10.4351 6.53787 10.4651 6.47801 10.5251C6.41799 10.585 6.38799 10.6509 6.38799 10.7229V19.5006C6.38799 19.5726 6.41799 19.6385 6.47801 19.6984C6.53787 19.7584 6.60381 19.7884 6.67583 19.7884H17.3241C17.3962 19.7884 17.4621 19.7584 17.522 19.6984C17.582 19.6385 17.612 19.5726 17.612 19.5006V10.7229C17.612 10.6509 17.582 10.585 17.522 10.5251C17.4621 10.4651 17.3962 10.4351 17.3241 10.4351H14.932V9.03207H17.3241C17.7966 9.03207 18.1966 9.19575 18.5239 9.52312C18.8513 9.85049 19.015 10.2504 19.015 10.7229V19.5006C19.015 19.9731 18.8513 20.373 18.5239 20.7004C18.1966 21.0277 17.7966 21.1914 17.3241 21.1914H6.67583ZM11.2985 15.8132V5.49581L9.56812 7.22617L8.58251 6.22607L12 2.80859L15.4175 6.22607L14.4319 7.22617L12.7015 5.49581V15.8132H11.2985Z" fill="#1F1F1F"/>
</svg>
